PathFileType	4	(x/y/z)	S02_M20_T14
DataRate	CameraRate	NumFrames	NumMarkers	Units	OrigDataRate	OrigDataStartFrame	OrigNumFrames
240	240	4	51	mm	240	116	460
Frame#	Time	Sternum			R.Acromium			L.Acromium			Top.Head			R.ASIS			L.ASIS			R.PSIS			L.PSIS			R.Great.Tro			L.Great.Tro			R.Iliac.Crest			L.Iliac.Crest			V.Sacral			R.Thigh.Upper.Post			R.Thigh.Lower.Ant			R.Thigh.Lower.Post			R.Thigh.Upper.Ant			R.Knee.Lat			R.Knee.Med			R.Shank.Upper.Post			R.Shank.Lower.Ant			R.Shank.Lower.Post			R.Shank.Upper.Ant			R.Ankle.Lat			R.Ankle.Med			R.Heel.Upper			R.Heel.Med			R.Heel.Lat			R.Toe.Lat			R.Toe.Med			R.Toe.Tip			L.Thigh.Upper.Post			L.Thigh.Lower.Ant			L.Thigh.Lower.Post			L.Thigh.Upper.Ant			L.Knee.Lat			L.Knee.Med			L.Shank.Upper.Post			L.Shank.Lower.Ant			L.Shank.Lower.Post			L.Shank.Upper.Ant			L.Ankle.Lat			L.Ankle.Med			L.Heel.Upper			L.Heel.Med			L.Heel.Lat			L.Toe.Lat			L.Toe.Med			L.Toe.Tip			Cervical.Spine			Back			
		X1	Y1	Z1	X2	Y2	Z2	X3	Y3	Z3	X4	Y4	Z4	X5	Y5	Z5	X6	Y6	Z6	X7	Y7	Z7	X8	Y8	Z8	X9	Y9	Z9	X10	Y10	Z10	X11	Y11	Z11	X12	Y12	Z12	X13	Y13	Z13	X14	Y14	Z14	X15	Y15	Z15	X16	Y16	Z16	X17	Y17	Z17	X18	Y18	Z18	X19	Y19	Z19	X20	Y20	Z20	X21	Y21	Z21	X22	Y22	Z22	X23	Y23	Z23	X24	Y24	Z24	X25	Y25	Z25	X26	Y26	Z26	X27	Y27	Z27	X28	Y28	Z28	X29	Y29	Z29	X30	Y30	Z30	X31	Y31	Z31	X32	Y32	Z32	X33	Y33	Z33	X34	Y34	Z34	X35	Y35	Z35	X36	Y36	Z36	X37	Y37	Z37	X38	Y38	Z38	X39	Y39	Z39	X40	Y40	Z40	X41	Y41	Z41	X42	Y42	Z42	X43	Y43	Z43	X44	Y44	Z44	X45	Y45	Z45	X46	Y46	Z46	X47	Y47	Z47	X48	Y48	Z48	X49	Y49	Z49	X50	Y50	Z50	X51	Y51	Z51	

116	0.47917	-907.66	1099.7	309.19	-1033.5	1340.2	439.66	-1005.6	1332	146.93	-980.19	1617	276.73	-930.23	923.03	413.79	-932.46	902.75	195.21	-1148.5	947.53	369.79	-1162.6	953.88	295.69	-973.8	809.81	509.73	-1072.4	832.01	119.66	-1030.5	969.42	472.7	-1061.2	950.78	139.34	-1182.3	902.66	327.19	-896.89	625.3	497.98	-819.44	572.36	456.71	-879.1	537.84	481.54	-842.64	658.35	469.76	-834.53	473.74	464.67	-838.65	455.02	319	-841.94	255.31	447.53	-741.74	208.23	444.27	-807.22	190.72	442	-771.29	271.5	457.52	-752.98	105.96	435.51	-736.4	126.49	355.56	-792.5	69.474	370.77	-765.16	47.471	344.76	-781.87	39.249	405.86	-641.83	92.83	476.45	-596.41	111.37	379.97	-573.68	152.08	441.68	-1146.7	624.46	151.9	-1091.4	528.78	158.12	-1168.6	539	175.32	-1076.2	620.37	135.28	-1129.3	453.68	171.6	-1134.7	455.13	309.81	-1243.3	306	174.31	-1197.1	205.99	196.35	-1263.6	234.96	193.24	-1186.8	279.39	177.66	-1260.2	111.52	210.09	-1254.8	109.38	293.51	-1327.9	85.736	245.23	-1322.4	60.371	278.41	-1323.7	58.723	216.57	-1160.2	34.737	191.7	-1141.9	43.594	301.79	-1078.8	53.303	257.07	-1095	1391.3	285.9	-1173.1	1141.2	293.78
117	0.48333	-902.45	1098.2	309.45	-1028	1338.9	440.19	-1000.3	1330.7	147.48	-974.87	1615.7	277.38	-924.6	921.74	413.82	-927.55	901.67	195.14	-1143	946.38	370.66	-1157.5	952.82	296.57	-968	808.22	509.6	-1068.1	831.34	119.94	-1024.7	968.03	473.16	-1056.6	949.65	139.77	-1176.8	901.49	328.09	-891.26	624.19	497.67	-813.95	571.25	456.15	-873.45	536.71	481.25	-837.18	657.23	469.12	-828.62	472.84	464.56	-833.59	453.62	318.75	-831.58	254.38	448.06	-730.43	209.4	444.23	-795.51	190.52	442.43	-761.23	272.13	457.57	-739.39	106.7	435.92	-723.75	127.38	355.87	-778.69	69.202	371.56	-751.21	47.787	345.39	-767.08	39.245	406.66	-627.62	95.943	476.08	-583.21	115.42	379.09	-560.98	156.64	440.71	-1143.5	624.32	152.2	-1088.8	528.27	158.09	-1165.9	538.97	175.57	-1073	619.79	135.31	-1127.1	453.37	171.58	-1132.2	454.7	309.78	-1241.8	306.4	174.25	-1196.4	206.01	196.33	-1263.1	235.3	193.79	-1185.6	279.29	177.71	-1260	111.82	210.1	-1254.5	109.68	293.53	-1327.8	86.107	245.2	-1322.3	60.807	278.41	-1323.6	59.148	216.55	-1160.2	34.713	191.68	-1141.8	43.602	301.78	-1078.8	53.226	257.06	-1089.7	1390	286.52	-1167.7	1139.9	294.46
118	0.4875	-897.22	1096.6	309.71	-1022.4	1337.6	440.75	-995.08	1329.3	148.04	-969.54	1614.4	278.05	-918.96	920.41	413.84	-922.64	900.56	195.06	-1137.5	945.19	371.53	-1152.2	951.74	297.46	-962.21	806.6	509.46	-1063.7	830.64	120.21	-1018.9	966.61	473.64	-1052	948.49	140.2	-1171.3	900.31	329	-885.61	623.09	497.37	-808.41	570.14	455.62	-867.75	535.58	480.99	-831.67	656.12	468.51	-822.67	471.97	464.46	-828.5	452.21	318.56	-821.38	253.54	448.6	-719.36	210.56	444.16	-784.04	190.39	442.84	-751.33	272.75	457.61	-726.14	107.49	436.29	-711.45	128.3	356.14	-765.24	69.034	372.31	-737.58	48.234	345.99	-752.67	39.347	407.4	-613.79	99.009	475.63	-570.4	119.37	378.1	-548.63	161.05	439.65	-1140.3	624.15	152.52	-1086.1	527.74	158.04	-1163.2	538.9	175.83	-1069.9	619.19	135.33	-1124.8	453.02	171.55	-1129.5	454.21	309.75	-1240.2	306.79	174.19	-1195.5	206.02	196.32	-1262.6	235.65	194.32	-1184.5	279.16	177.77	-1259.8	112.13	210.1	-1254.2	109.99	293.53	-1327.6	86.499	245.17	-1322.2	61.261	278.4	-1323.5	59.589	216.52	-1160.2	34.689	191.67	-1141.8	43.609	301.76	-1078.7	53.149	257.04	-1084.3	1388.7	287.17	-1162.2	1138.6	295.18
119	0.49167	-891.96	1095.1	309.98	-1016.8	1336.2	441.34	-989.82	1327.9	148.62	-964.2	1613.1	278.74	-913.3	919.04	413.86	-917.71	899.4	194.98	-1131.9	943.98	372.4	-1147	950.65	298.35	-956.42	804.95	509.32	-1059.3	829.91	120.48	-1013.1	965.16	474.13	-1047.4	947.33	140.63	-1165.8	899.12	329.92	-879.91	622	497.07	-802.82	569.05	455.1	-862.01	534.47	480.74	-826.12	655.02	467.91	-816.68	471.11	464.39	-823.39	450.8	318.42	-811.34	252.78	449.13	-708.53	211.71	444.08	-772.81	190.31	443.24	-741.6	273.37	457.64	-713.24	108.31	436.6	-699.51	129.24	356.37	-752.17	68.951	373.03	-724.29	48.784	346.54	-738.67	39.529	408.1	-600.37	102	475.1	-557.99	123.2	377.02	-536.65	165.29	438.52	-1137	623.94	152.86	-1083.4	527.19	157.99	-1160.3	538.78	176.1	-1066.7	618.57	135.36	-1122.4	452.65	171.53	-1126.8	453.65	309.7	-1238.6	307.18	174.13	-1194.6	206.03	196.29	-1261.9	236.01	194.81	-1183.2	279.01	177.85	-1259.5	112.45	210.09	-1253.9	110.31	293.53	-1327.5	86.919	245.12	-1322.1	61.739	278.37	-1323.3	60.052	216.48	-1160.2	34.664	191.66	-1141.8	43.615	301.74	-1078.7	53.073	257.01	-1078.9	1387.4	287.84	-1156.7	1137.2	295.93
